<svg id="calendar" xmlns="http://www.w3.org/2000/svg" width="33.861" height="35.35" viewBox="0 0 33.861 35.35">
  <path id="Path_126" data-name="Path 126" d="M31.974,4.636h-.606V2.3a2.3,2.3,0,1,0-4.591,0v2.34H25.3V2.3a2.3,2.3,0,1,0-4.591,0v2.34h-1.48V2.3a2.3,2.3,0,0,0-4.591,0v2.34h-1.48V2.3a2.3,2.3,0,1,0-4.591,0v2.34H7.084V2.3a2.3,2.3,0,1,0-4.591,0v2.34H1.887A1.889,1.889,0,0,0,0,6.523V17.355a.52.52,0,1,0,1.039,0V12.018H24.847a.52.52,0,0,0,0-1.04H1.039V6.523a.849.849,0,0,1,.848-.847h.606V5.97a2.3,2.3,0,1,0,4.591,0V5.676h1.48V5.97a2.3,2.3,0,1,0,4.591,0V5.676h1.48V5.97a2.3,2.3,0,1,0,4.591,0V5.676h1.48V5.97a2.3,2.3,0,1,0,4.591,0V5.676h1.48V5.97a2.3,2.3,0,1,0,4.591,0V5.676h.606a.849.849,0,0,1,.848.847v4.455h-5.9a.52.52,0,0,0,0,1.039h5.9V33.294A1.018,1.018,0,0,1,31.8,34.311H2.056a1.018,1.018,0,0,1-1.017-1.017V19.434a.52.52,0,1,0-1.039,0v13.86A2.059,2.059,0,0,0,2.056,35.35H31.8a2.059,2.059,0,0,0,2.056-2.056V6.523A1.889,1.889,0,0,0,31.974,4.636ZM6.045,5.97a1.256,1.256,0,1,1-2.512,0V2.3a1.256,1.256,0,1,1,2.512,0Zm6.071,0a1.256,1.256,0,1,1-2.512,0V2.3a1.256,1.256,0,1,1,2.512,0Zm6.071,0a1.256,1.256,0,0,1-2.513,0V2.3a1.256,1.256,0,0,1,2.513,0Zm6.071,0a1.256,1.256,0,1,1-2.512,0V2.3a1.256,1.256,0,1,1,2.512,0Zm6.071,0a1.256,1.256,0,1,1-2.512,0V2.3a1.256,1.256,0,1,1,2.512,0Zm0,0" fill="#fff"/>
  <path id="Path_127" data-name="Path 127" d="M148.159,237.963a7.2,7.2,0,1,0-7.2-7.2A7.206,7.206,0,0,0,148.159,237.963Zm0-13.357A6.159,6.159,0,1,1,142,230.765,6.166,6.166,0,0,1,148.159,224.606Zm0,0" transform="translate(-131.228 -208.131)" fill="#fff"/>
  <path id="Path_128" data-name="Path 128" d="M155.52,217.941a.519.519,0,1,0-.406-.195A.521.521,0,0,0,155.52,217.941Zm0,0" transform="translate(-144.298 -201.926)" fill="#fff"/>
  <path id="Path_129" data-name="Path 129" d="M237.985,188.953a.52.52,0,1,0-.521-.519.519.519,0,0,0,.521.519Zm0,0" transform="translate(-221.069 -174.94)" fill="#fff"/>
  <path id="Path_130" data-name="Path 130" d="M208.536,192.286a.508.508,0,0,0,.117-.013.519.519,0,1,0-.117.013Zm0,0" transform="translate(-193.655 -178.042)" fill="#fff"/>
  <path id="Path_131" data-name="Path 131" d="M180.572,202.119a.52.52,0,1,0-.468-.293A.519.519,0,0,0,180.572,202.119Zm0,0" transform="translate(-167.62 -187.196)" fill="#fff"/>
  <path id="Path_132" data-name="Path 132" d="M108.567,291.391a.519.519,0,0,0,.392.622.5.5,0,0,0,.115.013.52.52,0,1,0-.507-.635Zm0,0" transform="translate(-101.059 -270.895)" fill="#fff"/>
  <path id="Path_133" data-name="Path 133" d="M109.649,350.3a.52.52,0,1,0-.507.635.509.509,0,0,0,.117-.013A.52.52,0,0,0,109.649,350.3Zm0,0" transform="translate(-101.123 -325.738)" fill="#fff"/>
  <path id="Path_134" data-name="Path 134" d="M118.955,378.9a.52.52,0,1,0-.468-.294A.515.515,0,0,0,118.955,378.9Zm0,0" transform="translate(-110.257 -351.768)" fill="#fff"/>
  <path id="Path_135" data-name="Path 135" d="M119.054,263.044a.52.52,0,1,0,.243.693A.52.52,0,0,0,119.054,263.044Zm0,0" transform="translate(-110.14 -244.835)" fill="#fff"/>
  <path id="Path_136" data-name="Path 136" d="M267.439,192.189a.52.52,0,0,0,.114-1.026h0a.52.52,0,1,0-.228,1.014A.536.536,0,0,0,267.439,192.189Zm0,0" transform="translate(-248.49 -177.952)" fill="#fff"/>
  <path id="Path_137" data-name="Path 137" d="M105.3,320.962a.52.52,0,1,0,.519-.52A.519.519,0,0,0,105.3,320.962Zm0,0" transform="translate(-98.03 -298.317)" fill="#fff"/>
  <path id="Path_138" data-name="Path 138" d="M357.05,378.026a.52.52,0,1,0,.694-.242A.52.52,0,0,0,357.05,378.026Zm0,0" transform="translate(-332.35 -351.652)" fill="#fff"/>
  <path id="Path_139" data-name="Path 139" d="M155.332,424.06a.52.52,0,1,0,.73-.083A.52.52,0,0,0,155.332,424.06Zm0,0" transform="translate(-144.502 -394.598)" fill="#fff"/>
  <path id="Path_140" data-name="Path 140" d="M134.438,403.037a.52.52,0,1,0,.731.081h0A.52.52,0,0,0,134.438,403.037Zm0,0" transform="translate(-124.974 -375.104)" fill="#fff"/>
  <path id="Path_141" data-name="Path 141" d="M134.916,238a.52.52,0,1,0,.082.73A.52.52,0,0,0,134.916,238Zm0,0" transform="translate(-124.816 -221.462)" fill="#fff"/>
  <path id="Path_142" data-name="Path 142" d="M180.367,439.929a.52.52,0,1,0,.694-.243A.52.52,0,0,0,180.367,439.929Zm0,0" transform="translate(-167.866 -409.281)" fill="#fff"/>
  <path id="Path_143" data-name="Path 143" d="M357.163,262.646a.52.52,0,1,0,.694.24A.519.519,0,0,0,357.163,262.646Zm0,0" transform="translate(-332.23 -244.463)" fill="#fff"/>
  <path id="Path_144" data-name="Path 144" d="M367.3,350.788a.52.52,0,1,0-.116-.013A.52.52,0,0,0,367.3,350.788Zm0,0" transform="translate(-341.459 -325.6)" fill="#fff"/>
  <path id="Path_145" data-name="Path 145" d="M208.316,449.813a.52.52,0,0,0,.392.622.5.5,0,0,0,.115.013.52.52,0,1,0-.507-.635Zm0,0" transform="translate(-193.921 -418.379)" fill="#fff"/>
  <path id="Path_146" data-name="Path 146" d="M367.115,290.562a.52.52,0,0,0-.391.623h0a.519.519,0,0,0,.506.4.509.509,0,0,0,.116-.013.52.52,0,1,0-.232-1.013Zm0,0" transform="translate(-341.392 -270.488)" fill="#fff"/>
  <path id="Path_147" data-name="Path 147" d="M371.114,320.537v-.022a.52.52,0,0,0-1.039,0v.02a.52.52,0,0,0,1.039,0Zm0,0" transform="translate(-344.523 -297.902)" fill="#fff"/>
  <path id="Path_148" data-name="Path 148" d="M320.449,423.9a.52.52,0,0,0,.325.926.514.514,0,0,0,.324-.114h0a.52.52,0,0,0-.649-.812Zm0,0" transform="translate(-298.142 -394.524)" fill="#fff"/>
  <path id="Path_149" data-name="Path 149" d="M341.324,403.015a.52.52,0,1,0,.73-.082A.52.52,0,0,0,341.324,403.015Zm0,0" transform="translate(-317.653 -375.007)" fill="#fff"/>
  <path id="Path_150" data-name="Path 150" d="M320.558,217.671a.52.52,0,1,0-.323-.113A.519.519,0,0,0,320.558,217.671Zm0,0" transform="translate(-297.942 -201.675)" fill="#fff"/>
  <path id="Path_151" data-name="Path 151" d="M341.224,237.662a.52.52,0,1,0,.73.081h0A.519.519,0,0,0,341.224,237.662Zm0,0" transform="translate(-317.483 -221.147)" fill="#fff"/>
  <path id="Path_152" data-name="Path 152" d="M295.437,201.927a.52.52,0,1,0-.224-.051A.519.519,0,0,0,295.437,201.927Zm0,0" transform="translate(-274.555 -187.017)" fill="#fff"/>
  <path id="Path_153" data-name="Path 153" d="M267.612,449.386a.52.52,0,0,0,.115,1.027.55.55,0,0,0,.116-.013.52.52,0,1,0-.231-1.014Zm0,0" transform="translate(-248.759 -418.347)" fill="#fff"/>
  <path id="Path_154" data-name="Path 154" d="M237.758,453.2a.52.52,0,1,0,.52-.52A.521.521,0,0,0,237.758,453.2Zm0,0" transform="translate(-221.342 -421.429)" fill="#fff"/>
  <path id="Path_155" data-name="Path 155" d="M295.475,439.626a.52.52,0,1,0,.694.242A.519.519,0,0,0,295.475,439.626Zm0,0" transform="translate(-274.801 -409.224)" fill="#fff"/>
  <path id="Path_156" data-name="Path 156" d="M207.364,293.1a.519.519,0,0,0,.389.186h.008a.52.52,0,0,0,.387-.173l4.1-4.573a.52.52,0,0,0-.774-.694l-3.7,4.127-.982-1.169a.52.52,0,1,0-.8.668Zm0,0" transform="translate(-191.66 -267.815)" fill="#fff"/>
</svg>
